<svg height="200px" width="200px" version="1.1" id="Layer_1" xmlns="http://www.w3.org/2000/svg" xmlns:xlink="http://www.w3.org/1999/xlink" viewBox="0 0 392.792 392.792" xml:space="preserve" fill="#000000"><g id="SVGRepo_bgCarrier" stroke-width="0"></g><g id="SVGRepo_tracerCarrier" stroke-linecap="round" stroke-linejoin="round"></g><g id="SVGRepo_iconCarrier"> <path style="fill:#FFFFFF;" d="M21.851,269.244h181.592c-2.069-6.723-3.232-13.899-3.232-21.398 c0-39.693,32.323-72.016,72.016-72.016s72.016,32.323,72.016,72.016c0,7.434-1.164,14.61-3.232,21.398h29.802V21.907H21.851V269.244 z"></path> <path style="fill:#56ACE0;" d="M344.048,245.713c2.909-1.939,4.978-5.301,4.978-9.115V54.683c0-6.012-4.848-10.925-10.925-10.925 H54.626c-6.012,0-10.925,4.848-10.925,10.925v181.915c0,6.012,4.848,10.925,10.925,10.925H200.21"></path> <g> <path style="fill:#FFC10D;" d="M257.293,318.311v37.495l7.176-7.046c4.267-4.202,10.99-4.202,15.192,0l7.176,7.046v-37.495 c-4.784,1.034-9.762,1.552-14.869,1.552C267.119,319.862,262.141,319.345,257.293,318.311z"></path> <path style="fill:#FFC10D;" d="M322.392,247.911c0-27.669-22.497-50.23-50.23-50.23c-16.485,0-31.095,8.016-40.275,20.299 c6.659,0,14.545-0.065,21.915-0.065h0.065c6.012,0,10.925,4.848,10.925,10.796c0.065,6.012-4.784,10.99-10.796,10.99 c-9.568,0.065-28.962,0.065-31.354,0.065c-0.453,2.65-0.711,5.301-0.711,8.145c0,2.844,0.323,5.495,0.711,8.21 c3.879,0,9.051-0.065,13.834-0.065c6.271-0.065,10.99,4.719,11.055,10.731c0.065,6.012-4.719,10.99-10.731,11.055 c-1.745,0-3.297,0.065-4.848,0.065c9.18,12.283,23.725,20.234,40.21,20.234C299.895,298.076,322.392,275.58,322.392,247.911z"></path> </g> <g> <path style="fill:#194F82;" d="M324.396,74.012H68.267c-6.012,0-10.925-4.848-10.925-10.925s4.848-10.925,10.925-10.925h256 c6.012,0,10.925,4.848,10.925,10.925S330.408,74.012,324.396,74.012z"></path> <path style="fill:#194F82;" d="M324.396,114.157H68.267c-6.012,0-10.925-4.848-10.925-10.925c0-6.077,4.848-10.925,10.925-10.925 h256c6.012,0,10.925,4.848,10.925,10.925C335.192,109.244,330.408,114.157,324.396,114.157z"></path> <path style="fill:#194F82;" d="M324.396,154.303H68.267c-6.012,0-10.925-4.848-10.925-10.925c0-6.012,4.848-10.925,10.925-10.925 h256c6.012,0,10.925,4.848,10.925,10.925C335.192,149.39,330.408,154.303,324.396,154.303z"></path> <path style="fill:#194F82;" d="M178.101,194.448H68.267c-6.012,0-10.925-4.848-10.925-10.925c0-6.012,4.848-10.925,10.925-10.925 h109.834c6.012,0,10.925,4.848,10.925,10.925C188.962,189.535,184.113,194.448,178.101,194.448z"></path> <path style="fill:#194F82;" d="M174.287,234.529H68.267c-6.012,0-10.925-4.848-10.925-10.925c0-6.012,4.848-10.925,10.925-10.925 h106.02c6.012,0,10.925,4.848,10.925,10.925C185.212,229.616,180.364,234.529,174.287,234.529z"></path> <path style="fill:#194F82;" d="M381.737,0.121H10.925C4.913,0.121,0,4.969,0,11.046v269.123c0,6.012,4.848,10.925,10.925,10.925 h203.766c5.624,7.499,12.735,13.834,20.816,18.683v71.952c0,9.632,11.572,14.545,18.554,7.822l18.101-17.713l18.166,17.713 c6.853,6.723,18.554,1.875,18.554-7.822v-71.952c8.145-4.784,15.127-11.184,20.881-18.683h52.105 c6.012,0,10.925-4.848,10.925-10.925V10.982C392.598,4.969,387.749,0.121,381.737,0.121z M287.03,355.806l-7.176-7.046 c-4.267-4.202-10.99-4.202-15.192,0l-7.176,7.046v-37.495c4.784,1.034,9.762,1.552,14.869,1.552c5.107,0,10.02-0.517,14.869-1.552 v37.495H287.03z M272.226,298.076c-16.485,0-31.095-7.952-40.21-20.234c1.552,0,3.103,0,4.848-0.065 c6.012-0.065,10.796-5.042,10.731-11.055c-0.065-6.012-4.784-10.796-11.055-10.731c-4.784,0.065-9.956,0.065-13.834,0.065 c-0.453-2.715-0.711-5.43-0.711-8.21c0-2.78,0.323-5.495,0.711-8.145c2.327,0.065,21.721,0,31.354-0.065 c6.012-0.065,10.925-4.913,10.796-10.99c-0.065-6.012-4.913-10.796-10.925-10.796h-0.065c-7.434,0.065-15.386,0.065-21.915,0.065 c9.18-12.283,23.725-20.299,40.275-20.299c27.669,0,50.23,22.497,50.23,50.23C322.392,275.58,299.895,298.076,272.226,298.076z M370.812,269.244H341.01c2.069-6.723,3.232-13.899,3.232-21.398c0-39.693-32.323-72.016-72.016-72.016 s-72.016,32.388-72.016,72.081c0,7.434,1.164,14.61,3.232,21.398H21.851V21.907h348.962L370.812,269.244L370.812,269.244z"></path> </g> </g></svg>